<svg xmlns="http://www.w3.org/2000/svg" version="1.1" xmlns:xlink="http://www.w3.org/1999/xlink" xmlns:svgjs="http://svgjs.com/svgjs"><g transform="matrix(1,0,0,1,65,80)"><rect width="50" height="20" x="-30" y="-10" rx="0" ry="0" fill="none" stroke-width="1" stroke="black" stroke-dasharray="5 1 2 1"></rect><rect width="2" height="8" x="21" y="-4" rx="0" ry="0" fill="black" stroke-width="1" stroke="black"></rect><rect width="16" height="12" x="24" y="-6" rx="0" ry="0" fill="black" stroke-width="1" stroke="black"></rect><line x1="15" y1="1.5" x2="15" y2="-6.5" fill="none" stroke-width="1" stroke="black"></line><line x1="-28" y1="-6" x2="-28" y2="1.5" fill="none" stroke-width="1" stroke="black"></line><line x1="-30" y1="6" x2="-25.5" y2="6" fill="none" stroke-width="1" stroke="black"></line><line x1="-25.5" y1="5" x2="-17.5" y2="5" fill="none" stroke-width="1" stroke="black"></line><line x1="-60" y1="-60" x2="-30" y2="-30" fill="none" stroke-width="1" stroke="red" stroke-dasharray="5 1" marker-start="url(#SvgjsMarker1000)"></line><line x1="0" y1="-30" x2="20" y2="-75" fill="none" stroke-width="1" stroke="black" marker-start="url(#SvgjsMarker1001)" marker-end="url(#SvgjsMarker1002)"></line><line x1="35" y1="-40" x2="90" y2="-40" fill="none" stroke-width="6" stroke="black" marker-start="url(#SvgjsMarker1003)" marker-end="url(#SvgjsMarker1004)"></line><line x1="-57" y1="45" x2="75" y2="45" fill="none" stroke-width="2" stroke="black" marker-start="url(#SvgjsMarker1005)" marker-end="url(#SvgjsMarker1006)"></line><text x="-21" y="5" font-family="Sans Serif" font-size="9pt" svgjs:data="{&quot;leading&quot;:&quot;1.3&quot;}">CCTV</text><g transform="matrix(1,0,0,1,0,10)"><line x1="0" y1="0" x2="0" y2="-4" stroke-width="1" stroke="red"></line><line x1="0" y1="0" x2="0" y2="-1" stroke-width="1" stroke="blue"></line></g><g transform="matrix(1,0,0,1,-10,10)"><line x1="0" y1="0" x2="0" y2="-4" stroke-width="1" stroke="red"></line><line x1="0" y1="0" x2="0" y2="-1" stroke-width="1" stroke="blue"></line></g><g transform="matrix(1,0,0,1,-30,0)"><line x1="0" y1="0" x2="4" y2="0" stroke-width="1" stroke="red"></line><line x1="0" y1="0" x2="1" y2="0" stroke-width="1" stroke="blue"></line></g><g transform="matrix(1,0,0,1,-20,10)"><line x1="0" y1="0" x2="0" y2="-4" stroke-width="1" stroke="red"></line><line x1="0" y1="0" x2="0" y2="-1" stroke-width="1" stroke="blue"></line></g></g><defs><pattern x="0" y="4" width="6" height="6" patternUnits="userSpaceOnUse"><line x1="0" y1="1" x2="6" y2="1" stroke-width="1" stroke="black"></line></pattern><pattern x="4.5" y="0" width="8" height="8" patternUnits="userSpaceOnUse"><line x1="1" y1="0" x2="1" y2="8" stroke-width="1" stroke="black"></line></pattern><pattern x="0" y="0" width="8" height="8" patternUnits="userSpaceOnUse"><line x1="0" y1="8" x2="8" y2="0" stroke-width="1" stroke="black"></line><line x1="-1" y1="1" x2="1" y2="-1" stroke-width="1" stroke="black"></line><line x1="7" y1="9" x2="9" y2="7" stroke-width="1" stroke="black"></line></pattern><pattern x="0" y="0" width="8" height="8" patternUnits="userSpaceOnUse"><line x1="0" y1="0" x2="8" y2="8" stroke-width="1" stroke="black"></line><line x1="7" y1="-1" x2="9" y2="1" stroke-width="1" stroke="black"></line><line x1="-1" y1="7" x2="1" y2="9" stroke-width="1" stroke="black"></line></pattern><marker markerWidth="8" markerHeight="8" refX="4" refY="4" viewBox="0 0 8 8" orient="auto" markerUnits="userSpaceOnUse" id="SvgjsMarker1000"><circle r="1.5" cx="5" cy="4" fill="white" stroke-width="1" stroke="black"></circle></marker><marker markerWidth="10" markerHeight="10" refX="5" refY="5" viewBox="0 0 10 10" orient="auto" markerUnits="userSpaceOnUse" id="SvgjsMarker1001"><polyline points="9.5,0.5 5,5 9.5,9.5" fill="none" stroke-width="1" stroke="black"></polyline></marker><marker markerWidth="8" markerHeight="8" refX="4" refY="4" viewBox="0 0 8 8" orient="auto" markerUnits="userSpaceOnUse" id="SvgjsMarker1002"><circle r="1.5" cx="3" cy="4" fill="white" stroke-width="1" stroke="black"></circle></marker><marker markerWidth="32" markerHeight="32" refX="16" refY="16" viewBox="0 0 32 32" orient="auto" markerUnits="userSpaceOnUse" id="SvgjsMarker1003"><circle r="5" cx="23" cy="16" fill="white" stroke-width="6" stroke="black"></circle></marker><marker markerWidth="32" markerHeight="32" refX="16" refY="16" viewBox="0 0 32 32" orient="auto" markerUnits="userSpaceOnUse" id="SvgjsMarker1004"><circle r="5" cx="9" cy="16" fill="white" stroke-width="6" stroke="black"></circle></marker><marker markerWidth="44" markerHeight="44" refX="22" refY="22" viewBox="0 0 44 44" orient="auto" markerUnits="userSpaceOnUse" id="SvgjsMarker1005"><circle r="10" cx="32" cy="22" fill="white" stroke-width="2" stroke="black"></circle></marker><marker markerWidth="20" markerHeight="20" refX="10" refY="10" viewBox="0 0 20 20" orient="auto" markerUnits="userSpaceOnUse" id="SvgjsMarker1006"><polyline points="0.5,0.5 10,10 0.5,19.5" fill="none" stroke-width="2" stroke="black"></polyline></marker></defs></svg>