<svg xmlns="http://www.w3.org/2000/svg" version="1.1" xmlns:xlink="http://www.w3.org/1999/xlink" xmlns:svgjs="http://svgjs.com/svgjs"><g transform="matrix(1,0,0,1,65,80)"><rect width="50" height="20" x="-30" y="-10" rx="0" ry="0" fill="none" stroke-width="1" stroke="black" stroke-dasharray="5 1 2 1"></rect><rect width="2" height="8" x="21" y="-4" rx="0" ry="0" fill="black" stroke-width="1" stroke="black"></rect><rect width="16" height="12" x="24" y="-6" rx="0" ry="0" fill="black" stroke-width="1" stroke="black"></rect><line x1="15" y1="1.5" x2="15" y2="-6.5" fill="none" stroke-width="1" stroke="black"></line><line x1="-28" y1="-6" x2="-28" y2="1.5" fill="none" stroke-width="1" stroke="black"></line><line x1="-30" y1="6" x2="-25.5" y2="6" fill="none" stroke-width="1" stroke="black"></line><line x1="-25.5" y1="5" x2="-17.5" y2="5" fill="none" stroke-width="1" stroke="black"></line><line x1="-60" y1="-60" x2="-30" y2="-30" fill="none" stroke-width="1" stroke="red" stroke-dasharray="5 1" marker-start="url(#SvgjsMarker1000)"></line><line x1="0" y1="-30" x2="20" y2="-75" fill="none" stroke-width="1" stroke="black" marker-start="url(#SvgjsMarker1001)" marker-end="url(#SvgjsMarker1002)"></line><line x1="35" y1="-40" x2="90" y2="-40" fill="none" stroke-width="1" stroke="black" marker-start="url(#SvgjsMarker1003)" marker-end="url(#SvgjsMarker1004)"></line><line x1="-57" y1="45" x2="75" y2="45" fill="none" stroke-width="2" stroke="black" marker-start="url(#SvgjsMarker1005)" marker-end="url(#SvgjsMarker1006)"></line><line x1="-21" y1="30" x2="51" y2="30" fill="none" stroke-width="1" stroke="black"></line><line x1="50" y1="20" x2="75" y2="45" fill="none" stroke-width="1" stroke="black"></line><text x="-21" y="5" font-family="Sans Serif" font-size="9pt" svgjs:data="{&quot;leading&quot;:&quot;1.3&quot;}">CCTV</text><g transform="matrix(1,0,0,1,0,10)"><line x1="0" y1="0" x2="0" y2="-4" stroke-width="1" stroke="red"></line><line x1="0" y1="0" x2="0" y2="-1" stroke-width="1" stroke="blue"></line></g><g transform="matrix(1,0,0,1,-10,10)"><line x1="0" y1="0" x2="0" y2="-4" stroke-width="1" stroke="red"></line><line x1="0" y1="0" x2="0" y2="-1" stroke-width="1" stroke="blue"></line></g><g transform="matrix(1,0,0,1,-30,0)"><line x1="0" y1="0" x2="4" y2="0" stroke-width="1" stroke="red"></line><line x1="0" y1="0" x2="1" y2="0" stroke-width="1" stroke="blue"></line></g><g transform="matrix(1,0,0,1,-20,10)"><line x1="0" y1="0" x2="0" y2="-4" stroke-width="1" stroke="red"></line><line x1="0" y1="0" x2="0" y2="-1" stroke-width="1" stroke="blue"></line></g></g><defs><pattern x="0" y="4" width="6" height="6" patternUnits="userSpaceOnUse"><line x1="0" y1="1" x2="6" y2="1" stroke-width="1" stroke="black"></line></pattern><pattern x="4.5" y="0" width="8" height="8" patternUnits="userSpaceOnUse"><line x1="1" y1="0" x2="1" y2="8" stroke-width="1" stroke="black"></line></pattern><pattern x="0" y="0" width="8" height="8" patternUnits="userSpaceOnUse"><line x1="0" y1="8" x2="8" y2="0" stroke-width="1" stroke="black"></line><line x1="-1" y1="1" x2="1" y2="-1" stroke-width="1" stroke="black"></line><line x1="7" y1="9" x2="9" y2="7" stroke-width="1" stroke="black"></line></pattern><pattern x="0" y="0" width="8" height="8" patternUnits="userSpaceOnUse"><line x1="0" y1="0" x2="8" y2="8" stroke-width="1" stroke="black"></line><line x1="7" y1="-1" x2="9" y2="1" stroke-width="1" stroke="black"></line><line x1="-1" y1="7" x2="1" y2="9" stroke-width="1" stroke="black"></line></pattern><marker markerWidth="8" markerHeight="8" refX="4" refY="4" viewBox="0 0 8 8" orient="auto" markerUnits="userSpaceOnUse" id="SvgjsMarker1000"><circle r="1.5" cx="5" cy="4" fill="white" stroke-width="1" stroke="black"></circle></marker><marker markerWidth="11" markerHeight="11" refX="5.5" refY="5.5" viewBox="0 0 11 11" orient="auto" markerUnits="userSpaceOnUse" id="SvgjsMarker1001"><polyline points="10.5,0.5 5.5,5.5 10.5,10.5" fill="none" stroke-width="1" stroke="black"></polyline></marker><marker markerWidth="8" markerHeight="8" refX="4" refY="4" viewBox="0 0 8 8" orient="auto" markerUnits="userSpaceOnUse" id="SvgjsMarker1002"><circle r="1.5" cx="3" cy="4" fill="white" stroke-width="1" stroke="black"></circle></marker><marker markerWidth="23.1" markerHeight="23.1" refX="11.55" refY="11.55" viewBox="0 0 23.1 23.1" orient="auto" markerUnits="userSpaceOnUse" id="SvgjsMarker1003"><polygon points="11.55,11.55 16.55,6.550000000000001 21.55,11.55 16.55,16.55" fill="white" stroke-width="1" stroke="black"></polygon></marker><marker markerWidth="36.300000000000004" markerHeight="36.300000000000004" refX="18.150000000000002" refY="18.150000000000002" viewBox="0 0 36.300000000000004 36.300000000000004" orient="auto" markerUnits="userSpaceOnUse" id="SvgjsMarker1004"><polygon points="18.150000000000002,18.150000000000002 10.150000000000002,10.150000000000002 2.150000000000002,18.150000000000002 10.150000000000002,26.150000000000002" fill="white" stroke-width="1" stroke="black"></polygon></marker><marker markerWidth="44" markerHeight="44" refX="22" refY="22" viewBox="0 0 44 44" orient="auto" markerUnits="userSpaceOnUse" id="SvgjsMarker1005"><circle r="10" cx="32" cy="22" fill="white" stroke-width="2" stroke="black"></circle></marker><marker markerWidth="55.00000000000001" markerHeight="55.00000000000001" refX="27.500000000000004" refY="27.500000000000004" viewBox="0 0 55.00000000000001 55.00000000000001" orient="auto" markerUnits="userSpaceOnUse" id="SvgjsMarker1006"><polyline points="2.5000000000000036,2.5000000000000036 27.500000000000004,27.500000000000004 2.5000000000000036,52.5" fill="none" stroke-width="2" stroke="black"></polyline></marker></defs></svg>